<?xml version="1.0" standalone="no"?>
<!DOCTYPE svg PUBLIC "-//W3C//DTD SVG 20010904//EN"
 "http://www.w3.org/TR/2001/REC-SVG-20010904/DTD/svg10.dtd">
<svg version="1.0" xmlns="http://www.w3.org/2000/svg"
 width="360.000000pt" height="465.000000pt" viewBox="0 0 360.000000 465.000000"
 preserveAspectRatio="xMidYMid meet">

<g transform="translate(0.000000,465.000000) scale(0.100000,-0.100000)"
fill="#000000" stroke="none">
<path d="M1655 4639 c-306 -44 -591 -251 -732 -534 -127 -253 -135 -562 -23
-826 89 -209 282 -407 494 -505 114 -52 215 -75 359 -81 308 -13 549 84 760
306 316 334 355 838 94 1226 -52 77 -175 200 -252 252 -208 140 -455 197 -700
162z"/>
<path d="M1660 2591 c-177 -19 -369 -75 -524 -153 -650 -325 -1089 -1086
-1132 -1958 -6 -114 -4 -140 9 -167 68 -131 525 -242 1207 -295 247 -19 984
-16 1230 5 545 47 911 125 1072 228 76 49 82 68 74 229 -28 545 -201 1037
-505 1435 -62 82 -221 245 -306 315 -209 171 -460 291 -709 339 -120 23 -308
33 -416 22z"/>
</g>
</svg>
